<svg width="64" height="64" viewBox="0 0 64 64" fill="none" xmlns="http://www.w3.org/2000/svg">
  <!-- Background circle -->
  <circle cx="32" cy="32" r="32" fill="#357abD"/>
  
  <!-- AI Circuit pattern -->
  <circle cx="20" cy="20" r="2" fill="white" opacity="0.8"/>
  <circle cx="44" cy="20" r="2" fill="white" opacity="0.8"/>
  <circle cx="32" cy="26" r="1.5" fill="white" opacity="0.6"/>
  <circle cx="20" cy="44" r="2" fill="white" opacity="0.8"/>
  <circle cx="44" cy="44" r="2" fill="white" opacity="0.8"/>
  
  <!-- Connecting lines -->
  <line x1="20" y1="20" x2="32" y2="26" stroke="white" stroke-width="1" opacity="0.6"/>
  <line x1="44" y1="20" x2="32" y2="26" stroke="white" stroke-width="1" opacity="0.6"/>
  <line x1="20" y1="44" x2="32" y2="38" stroke="white" stroke-width="1" opacity="0.6"/>
  <line x1="44" y1="44" x2="32" y2="38" stroke="white" stroke-width="1" opacity="0.6"/>
  
  <!-- Central brain/AI icon -->
  <path d="M32 14C26.5 14 22 18.5 22 24C22 26.5 23 28.8 24.5 30.5L22 36L26 34L28.5 37L32 35L35.5 37L38 34L42 36L39.5 30.5C41 28.8 42 26.5 42 24C42 18.5 37.5 14 32 14Z" fill="white"/>
  
  <!-- Interview/speech bubble -->
  <path d="M18 48C18 45.8 19.8 44 22 44H42C44.2 44 46 45.8 46 48V52C46 54.2 44.2 56 42 56H26L22 58V52C19.8 52 18 50.2 18 48Z" fill="white"/>
  
  <!-- Text inside speech bubble -->
  <text x="32" y="51" font-family="Arial, sans-serif" font-size="8" font-weight="bold" text-anchor="middle" fill="#357abD">AI</text>
</svg>